# 3ds Max Wavefront OBJ Exporter v0.94b - (c)2007 guruware
# File Created: 22.04.2009 22:59:35

mtllib shield.mtl

#
# object Sphere01
#

v  0.0000 0.0000 0.0003
v  -0.0000 0.1089 -0.0176
v  -0.0589 0.0916 -0.0176
v  -0.0990 0.0452 -0.0176
v  -0.1078 -0.0155 -0.0176
v  -0.0823 -0.0713 -0.0176
v  -0.0307 -0.1045 -0.0176
v  0.0307 -0.1045 -0.0176
v  0.0823 -0.0713 -0.0176
v  0.1078 -0.0155 -0.0176
v  0.0990 0.0452 -0.0176
v  0.0589 0.0916 -0.0176
v  -0.0000 0.1832 -0.0460
v  -0.0990 0.1541 -0.0460
v  -0.1666 0.0761 -0.0460
v  -0.1813 -0.0261 -0.0460
v  -0.1384 -0.1200 -0.0460
v  -0.0516 -0.1758 -0.0460
v  0.0516 -0.1758 -0.0460
v  0.1384 -0.1200 -0.0460
v  0.1813 -0.0261 -0.0460
v  0.1666 0.0761 -0.0460
v  0.0990 0.1541 -0.0460
# 23 vertices

vn -0.0000 -0.0000 1.0000
vn 0.0000 0.2779 0.9606
vn -0.1502 0.2337 0.9606
vn -0.2527 0.1154 0.9606
vn -0.2750 -0.0395 0.9606
vn -0.2100 -0.1820 0.9606
vn -0.0783 -0.2666 0.9606
vn 0.0783 -0.2666 0.9606
vn 0.2100 -0.1820 0.9606
vn 0.2750 -0.0395 0.9606
vn 0.2527 0.1154 0.9606
vn 0.1502 0.2337 0.9606
vn 0.0000 0.3572 0.9340
vn -0.1931 0.3005 0.9340
vn -0.3249 0.1484 0.9340
vn -0.3535 -0.0508 0.9340
vn -0.2699 -0.2339 0.9340
vn -0.1006 -0.3427 0.9340
vn 0.1006 -0.3427 0.9340
vn 0.2699 -0.2339 0.9340
vn 0.3535 -0.0508 0.9340
vn 0.3249 0.1484 0.9340
vn 0.1931 0.3005 0.9340
# 23 vertex normals

vt 0.5000 0.4897 0.9995
vt 0.5000 0.7927 0.6138
vt 0.3378 0.7446 0.6138
vt 0.2272 0.6156 0.6138
vt 0.2031 0.4466 0.6138
vt 0.2733 0.2912 0.6138
vt 0.4155 0.1989 0.6138
vt 0.5845 0.1989 0.6138
vt 0.7267 0.2912 0.6138
vt 0.7969 0.4466 0.6138
vt 0.7728 0.6156 0.6138
vt 0.6622 0.7446 0.6138
vt 0.5000 0.9995 0.0005
vt 0.2272 0.9186 0.0005
vt 0.0410 0.7015 0.0005
vt 0.0005 0.4171 0.0005
vt 0.1186 0.1558 0.0005
vt 0.3578 0.0005 0.0005
vt 0.6422 0.0005 0.0005
vt 0.8814 0.1558 0.0005
vt 0.9995 0.4171 0.0005
vt 0.9590 0.7015 0.0005
vt 0.7728 0.9186 0.0005
# 23 texture coords

g Sphere01
usemtl Material__0
s 1
f 1/1/1 2/2/2 3/3/3
f 1/1/1 3/3/3 4/4/4
f 1/1/1 4/4/4 5/5/5
f 1/1/1 5/5/5 6/6/6
f 1/1/1 6/6/6 7/7/7
f 1/1/1 7/7/7 8/8/8
f 1/1/1 8/8/8 9/9/9
f 1/1/1 9/9/9 10/10/10
f 1/1/1 10/10/10 11/11/11
f 1/1/1 11/11/11 12/12/12
f 1/1/1 12/12/12 2/2/2
f 2/2/2 13/13/13 14/14/14
f 2/2/2 14/14/14 3/3/3
f 3/3/3 14/14/14 15/15/15
f 3/3/3 15/15/15 4/4/4
f 4/4/4 15/15/15 16/16/16
f 4/4/4 16/16/16 5/5/5
f 5/5/5 16/16/16 17/17/17
f 5/5/5 17/17/17 6/6/6
f 6/6/6 17/17/17 18/18/18
f 6/6/6 18/18/18 7/7/7
f 7/7/7 18/18/18 19/19/19
f 7/7/7 19/19/19 8/8/8
f 8/8/8 19/19/19 20/20/20
f 8/8/8 20/20/20 9/9/9
f 9/9/9 20/20/20 21/21/21
f 9/9/9 21/21/21 10/10/10
f 10/10/10 21/21/21 22/22/22
f 10/10/10 22/22/22 11/11/11
f 11/11/11 22/22/22 23/23/23
f 11/11/11 23/23/23 12/12/12
f 12/12/12 23/23/23 13/13/13
f 12/12/12 13/13/13 2/2/2
# 33 faces
